<svg data-v-423bf9ae="" xmlns="http://www.w3.org/2000/svg" viewBox="0 0 550.6686174595967 163" class="iconAbove"><!----><!----><!----><g data-v-423bf9ae="" id="7664f258-7549-4143-932b-eac2a936b151" fill="#321E0F" transform="matrix(4.408522947042699,0,0,4.408522947042699,-3.085966890767395,90.17119426944049)"><path d="M0.70 10.43L0.84 12.67C1.46 13.24 2.62 13.51 3.60 13.51C6.08 13.51 7.06 12.10 7.06 10.67C7.06 9.02 5.94 8.23 4.30 7.63L3.85 7.46C2.91 7.11 2.13 6.51 2.13 5.67C2.13 4.65 2.74 3.89 3.92 3.89C5.12 3.89 5.80 4.58 6.02 5.99L6.45 5.99L6.45 4.02C5.98 3.64 5.03 3.40 4.07 3.40C2.37 3.40 0.85 4.26 0.85 6.10C0.85 7.57 2.03 8.34 3.50 8.86L3.75 8.96C4.37 9.20 5.70 9.84 5.70 11.09C5.70 12.29 4.93 13.02 3.68 13.02C2.37 13.02 1.50 12.00 1.15 10.43ZM7.74 13.30L11.16 13.30L11.16 12.89C10.16 12.82 10.11 12.80 10.11 12.08L10.11 8.81C10.11 8.46 10.12 8.26 10.22 8.06C10.49 7.50 11.10 7.03 11.87 7.03C13.08 7.03 13.22 7.91 13.22 8.78L13.22 12.08C13.22 12.80 13.17 12.82 12.17 12.89L12.17 13.30L15.58 13.30L15.58 12.89C14.59 12.82 14.53 12.80 14.53 12.08L14.53 8.81C14.53 8.46 14.55 8.26 14.63 8.04C14.84 7.48 15.44 7.03 16.23 7.03C17.11 7.03 17.64 7.53 17.64 8.78L17.64 12.08C17.64 12.80 17.60 12.82 16.59 12.89L16.59 13.30L20.01 13.30L20.01 12.89C19.01 12.82 18.96 12.80 18.96 12.08L18.96 8.50C18.96 7.08 18.20 6.27 16.87 6.27C15.72 6.27 14.90 7.04 14.41 7.35C14.07 6.69 13.54 6.27 12.56 6.27C11.48 6.27 10.60 6.97 10.11 7.34L9.98 6.27L7.81 6.62L7.81 6.97L8.34 7.04C8.71 7.10 8.79 7.17 8.79 7.67L8.79 12.08C8.79 12.80 8.75 12.82 7.74 12.89ZM20.90 11.48C20.90 12.53 21.60 13.47 22.92 13.47C23.73 13.47 24.56 12.92 25.00 12.63C25.20 13.15 25.42 13.47 25.91 13.47C26.43 13.47 27.03 13.31 27.57 13.05L27.48 12.71C27.29 12.75 26.98 12.78 26.77 12.73C26.52 12.67 26.28 12.40 26.28 11.52L26.28 8.13C26.28 7.32 26.10 6.27 23.98 6.27C22.40 6.27 21.15 7.10 21.15 7.87C21.15 8.32 21.67 8.53 21.94 8.53C22.23 8.53 22.32 8.37 22.39 8.13C22.69 7.10 23.27 6.76 23.83 6.76C24.37 6.76 25.02 7.04 25.02 8.16L25.02 8.75C24.67 9.11 23.31 9.46 22.20 9.81C21.20 10.12 20.90 10.82 20.90 11.48ZM22.32 11.28C22.32 10.63 22.62 10.29 23.41 10.00C23.97 9.79 24.71 9.52 25.02 9.32L25.02 11.30C25.02 12.43 24.15 12.73 23.60 12.73C22.74 12.73 22.32 12.11 22.32 11.28ZM27.99 13.30L31.68 13.30L31.68 12.89C30.44 12.82 30.35 12.80 30.35 12.08L30.35 8.81C30.35 7.73 30.83 7.36 31.15 7.36C31.37 7.36 31.61 7.45 32.02 7.67C32.12 7.73 32.23 7.74 32.30 7.74C32.63 7.74 32.94 7.39 32.94 6.96C32.94 6.65 32.75 6.27 32.20 6.27C31.70 6.27 31.28 6.58 30.35 7.39L30.18 6.27L28.06 6.62L28.06 6.97L28.59 7.04C28.95 7.10 29.04 7.17 29.04 7.67L29.04 12.08C29.04 12.80 28.97 12.82 27.99 12.89ZM33.53 7.00L34.54 7.00L34.54 11.87C34.54 13.30 35.60 13.47 36.09 13.47C36.81 13.47 37.48 13.10 37.88 12.85L37.77 12.56C37.44 12.70 37.13 12.74 36.78 12.74C36.30 12.74 35.85 12.40 35.85 11.34L35.85 7.00L37.66 7.00L37.66 6.44L35.85 6.44L35.85 4.68L35.45 4.68L34.59 6.44L33.53 6.44ZM41.76 10.43L41.90 12.67C42.52 13.24 43.68 13.51 44.66 13.51C47.14 13.51 48.12 12.10 48.12 10.67C48.12 9.02 47.00 8.23 45.36 7.63L44.91 7.46C43.97 7.11 43.19 6.51 43.19 5.67C43.19 4.65 43.81 3.89 44.98 3.89C46.19 3.89 46.86 4.58 47.08 5.99L47.52 5.99L47.52 4.02C47.04 3.64 46.09 3.40 45.14 3.40C43.43 3.40 41.92 4.26 41.92 6.10C41.92 7.57 43.09 8.34 44.56 8.86L44.81 8.96C45.43 9.20 46.76 9.84 46.76 11.09C46.76 12.29 45.99 13.02 44.74 13.02C43.43 13.02 42.56 12.00 42.21 10.43ZM48.73 7.00L49.74 7.00L49.74 11.87C49.74 13.30 50.81 13.47 51.30 13.47C52.01 13.47 52.68 13.10 53.09 12.85L52.98 12.56C52.64 12.70 52.33 12.74 51.98 12.74C51.51 12.74 51.06 12.40 51.06 11.34L51.06 7.00L52.86 7.00L52.86 6.44L51.06 6.44L51.06 4.68L50.65 4.68L49.80 6.44L48.73 6.44ZM53.48 6.97L54.01 7.04C54.38 7.10 54.46 7.17 54.46 7.67L54.46 11.37C54.46 12.98 55.41 13.47 56.45 13.47C57.64 13.47 58.60 12.66 59.01 12.46L59.15 13.30L61.39 13.30L61.39 12.89C60.42 12.82 60.34 12.80 60.34 12.08L60.34 6.36L60.24 6.27L58.04 6.62L58.04 6.97L58.58 7.04C58.94 7.10 59.02 7.17 59.02 7.67L59.02 10.82C59.02 11.21 58.98 11.52 58.91 11.66C58.59 12.31 57.92 12.71 57.19 12.71C56.38 12.71 55.78 12.21 55.78 11.12L55.78 6.36L55.68 6.27L53.48 6.62ZM62.29 10.01C62.29 12.08 63.36 13.47 65.21 13.47C65.97 13.47 66.63 13.13 67.38 12.52L67.38 13.20L67.49 13.30L69.76 13.30L69.76 12.89C68.77 12.82 68.71 12.80 68.71 12.08L68.71 3.00L68.61 2.91L66.42 3.26L66.42 3.61L66.95 3.67C67.31 3.71 67.40 3.78 67.40 4.31L67.40 6.61C67.00 6.40 66.49 6.27 65.84 6.27C64.69 6.27 63.84 6.64 63.25 7.24C62.65 7.87 62.29 8.79 62.29 10.01ZM63.74 9.84C63.74 8.02 64.40 6.76 65.83 6.76C66.49 6.76 67.02 7.07 67.27 7.64C67.38 7.88 67.40 8.08 67.40 8.46L67.40 10.92C67.40 11.23 67.38 11.47 67.30 11.70C67.02 12.43 66.40 12.71 65.67 12.71C64.39 12.71 63.74 11.45 63.74 9.84ZM70.66 9.93C70.66 12.14 71.61 13.47 73.89 13.47C75.45 13.47 76.24 12.60 76.62 11.49L76.20 11.27C75.81 12.08 75.28 12.75 74.17 12.75C72.44 12.75 72.09 11.07 72.11 9.62L76.15 9.62C76.44 9.62 76.71 9.55 76.71 9.09C76.71 8.26 76.44 6.27 73.88 6.27C71.69 6.27 70.66 7.83 70.66 9.93ZM72.13 9.09C72.13 8.51 72.34 6.76 73.79 6.76C75.10 6.76 75.25 8.09 75.25 8.64C75.25 8.90 75.17 9.09 74.77 9.09ZM77.62 13.30L81.03 13.30L81.03 12.89C80.04 12.82 79.98 12.80 79.98 12.08L79.98 8.81C79.98 8.46 80.01 8.26 80.12 8.04C80.42 7.49 81.05 7.03 81.79 7.03C82.74 7.03 83.26 7.56 83.26 8.78L83.26 12.08C83.26 12.80 83.22 12.82 82.21 12.89L82.21 13.30L85.62 13.30L85.62 12.89C84.63 12.82 84.57 12.80 84.57 12.08L84.57 8.50C84.57 7.08 83.80 6.27 82.52 6.27C81.48 6.27 80.84 6.78 79.97 7.34L79.77 6.27L77.69 6.62L77.69 6.97L78.22 7.04C78.58 7.10 78.67 7.17 78.67 7.67L78.67 12.08C78.67 12.80 78.62 12.82 77.62 12.89ZM86.27 7.00L87.28 7.00L87.28 11.87C87.28 13.30 88.34 13.47 88.83 13.47C89.54 13.47 90.22 13.10 90.62 12.85L90.51 12.56C90.17 12.70 89.87 12.74 89.52 12.74C89.04 12.74 88.59 12.40 88.59 11.34L88.59 7.00L90.40 7.00L90.40 6.44L88.59 6.44L88.59 4.68L88.19 4.68L87.33 6.44L86.27 6.44ZM94.50 10.43L94.64 12.67C95.26 13.24 96.42 13.51 97.40 13.51C99.88 13.51 100.86 12.10 100.86 10.67C100.86 9.02 99.74 8.23 98.10 7.63L97.65 7.46C96.71 7.11 95.93 6.51 95.93 5.67C95.93 4.65 96.54 3.89 97.72 3.89C98.92 3.89 99.60 4.58 99.82 5.99L100.25 5.99L100.25 4.02C99.78 3.64 98.83 3.40 97.87 3.40C96.17 3.40 94.65 4.26 94.65 6.10C94.65 7.57 95.83 8.34 97.30 8.86L97.55 8.96C98.17 9.20 99.50 9.84 99.50 11.09C99.50 12.29 98.73 13.02 97.48 13.02C96.17 13.02 95.30 12.00 94.95 10.43ZM101.50 13.30L104.90 13.30L104.90 12.89C103.94 12.82 103.85 12.77 103.85 12.08L103.85 8.81C103.85 8.46 103.87 8.26 103.98 8.05C104.27 7.49 104.92 7.03 105.66 7.03C106.61 7.03 107.13 7.56 107.13 8.78L107.13 12.08C107.13 12.77 107.06 12.82 106.08 12.89L106.08 13.30L109.49 13.30L109.49 12.89C108.53 12.82 108.44 12.77 108.44 12.08L108.44 8.50C108.44 7.08 107.67 6.27 106.37 6.27C105.35 6.27 104.72 6.75 103.84 7.34L103.84 3.00L103.74 2.91L101.56 3.26L101.56 3.61L102.09 3.68C102.45 3.74 102.54 3.81 102.54 4.31L102.54 12.08C102.54 12.77 102.48 12.82 101.50 12.89ZM110.39 9.87C110.39 12.14 111.50 13.47 113.75 13.47C116.00 13.47 117.11 12.14 117.11 9.87C117.11 7.60 116.00 6.27 113.75 6.27C111.50 6.27 110.39 7.60 110.39 9.87ZM111.85 9.87C111.85 7.94 112.46 6.76 113.75 6.76C115.04 6.76 115.65 7.94 115.65 9.87C115.65 11.80 115.04 12.98 113.75 12.98C112.46 12.98 111.85 11.80 111.85 9.87ZM118.13 16.11L118.13 16.52L121.76 16.52L121.76 16.11C120.58 16.04 120.50 16.02 120.50 15.30L120.50 13.15C120.79 13.31 121.45 13.47 122.09 13.47C123.98 13.47 125.61 12.60 125.61 9.72C125.61 8.72 125.43 6.27 122.88 6.27C121.86 6.27 121.04 6.96 120.50 7.31L120.32 6.27L118.20 6.62L118.20 6.97L118.73 7.04C119.10 7.10 119.18 7.17 119.18 7.67L119.18 15.30C119.18 16.02 119.11 16.04 118.13 16.11ZM120.50 11.10L120.50 8.81C120.50 8.46 120.55 8.26 120.68 8.01C121.00 7.36 121.60 7.03 122.35 7.03C122.91 7.03 124.15 7.39 124.15 9.80C124.15 11.86 123.51 12.98 122.11 12.98C121.38 12.98 120.82 12.60 120.60 11.96C120.51 11.70 120.50 11.42 120.50 11.10Z"></path></g><defs data-v-423bf9ae=""><linearGradient data-v-423bf9ae="" gradientTransform="rotate(25)" id="7a151564-30bd-4238-89c7-ba54b429010e" x1="0%" y1="0%" x2="100%" y2="0%"><stop data-v-423bf9ae="" offset="0%" style="stop-color: rgb(218, 110, 42); stop-opacity: 1;"></stop><stop data-v-423bf9ae="" offset="100%" style="stop-color: rgb(227, 158, 90); stop-opacity: 1;"></stop></linearGradient></defs><g data-v-423bf9ae="" id="7dd6ce7f-9a8f-41ca-bb8a-b73af50e01a4" transform="matrix(2.8125,0,0,2.8125,231,0)" stroke="none" fill="url(#7a151564-30bd-4238-89c7-ba54b429010e)"><path d="M16 1c8.271 0 15 6.729 15 15s-6.729 15-15 15S1 24.271 1 16 7.729 1 16 1m0-1C7.163 0 0 7.163 0 16s7.163 16 16 16 16-7.163 16-16S24.837 0 16 0z"></path><path d="M16 7.045L24.955 16 16 24.955 7.045 16 16 7.045m0-1.414L5.631 16 16 26.369 26.369 16 16 5.631z"></path><path d="M16 12.538L19.462 16 16 19.462 12.538 16 16 12.538m0-1.414L11.124 16 16 20.876 20.876 16 16 11.124z"></path></g><!----></svg>