<svg data-v-423bf9ae="" xmlns="http://www.w3.org/2000/svg" viewBox="0 0 553.7359996199526 60" class="font"><!----><!----><defs data-v-423bf9ae=""><linearGradient data-v-423bf9ae="" gradientTransform="rotate(25)" id="94e8b579-3b59-4453-ba4f-ed7f88d77ac5" x1="0%" y1="0%" x2="100%" y2="0%"><stop data-v-423bf9ae="" offset="0%" style="stop-color: rgb(255, 90, 32); stop-opacity: 1;"></stop><stop data-v-423bf9ae="" offset="100%" style="stop-color: rgb(255, 172, 199); stop-opacity: 1;"></stop></linearGradient></defs><g data-v-423bf9ae="" id="6082faba-ee86-483f-b4b2-fbb56bd88667" fill="url(#94e8b579-3b59-4453-ba4f-ed7f88d77ac5)" transform="matrix(4.474272981560021,0,0,4.474272981560021,-5.637589654018825,-2.0134236667663075)"><path d="M4.86 10.92L4.86 10.92Q4.24 10.92 3.75 10.75L3.75 10.75L3.75 10.75Q3.26 10.57 2.94 10.30L2.94 10.30L2.94 10.30Q2.62 10.07 2.48 9.98L2.48 9.98L2.48 9.98Q2.34 9.88 2.21 9.88L2.21 9.88L2.21 9.88Q1.92 9.88 1.85 10.36L1.85 10.36L1.78 10.81L1.34 10.81L1.26 6.38L1.71 6.38L1.71 6.38Q1.90 7.45 2.37 8.39L2.37 8.39L2.37 8.39Q2.84 9.32 3.51 9.90L3.51 9.90L3.51 9.90Q4.17 10.47 4.94 10.47L4.94 10.47L4.94 10.47Q6.05 10.47 6.45 9.98L6.45 9.98L6.45 9.98Q6.86 9.49 6.86 8.88L6.86 8.88L6.86 8.88Q6.86 8.51 6.60 8.23L6.60 8.23L6.60 8.23Q6.34 7.94 5.85 7.62L5.85 7.62L2.86 5.68L2.86 5.68Q2.20 5.26 1.74 4.63L1.74 4.63L1.74 4.63Q1.29 4.00 1.29 3.14L1.29 3.14L1.29 3.14Q1.29 1.78 2.08 1.11L2.08 1.11L2.08 1.11Q2.87 0.45 4.03 0.45L4.03 0.45L4.03 0.45Q5.03 0.45 6.02 1.15L6.02 1.15L6.02 1.15Q6.34 1.40 6.52 1.40L6.52 1.40L6.52 1.40Q6.78 1.40 6.83 1.08L6.83 1.08L6.92 0.70L7.36 0.70L7.50 4.34L7.06 4.34L7.06 4.34Q6.79 3.37 6.31 2.59L6.31 2.59L6.31 2.59Q5.84 1.81 5.21 1.35L5.21 1.35L5.21 1.35Q4.59 0.90 3.92 0.90L3.92 0.90L3.92 0.90Q3.18 0.90 2.82 1.19L2.82 1.19L2.82 1.19Q2.46 1.48 2.46 2.07L2.46 2.07L2.46 2.07Q2.46 2.87 3.71 3.68L3.71 3.68L6.72 5.63L6.72 5.63Q7.29 6.01 7.64 6.66L7.64 6.66L7.64 6.66Q7.98 7.32 7.98 8.04L7.98 8.04L7.98 8.04Q7.98 8.76 7.63 9.42L7.63 9.42L7.63 9.42Q7.28 10.08 6.58 10.50L6.58 10.50L6.58 10.50Q5.88 10.92 4.86 10.92L4.86 10.92ZM9.24 10.67L9.24 10.33L9.77 10.33L9.77 10.33Q9.90 10.33 9.95 10.28L9.95 10.28L9.95 10.28Q10.00 10.23 10.00 10.11L10.00 10.11L10.00 4.59L10.00 4.59Q10.00 4.47 9.95 4.42L9.95 4.42L9.95 4.42Q9.90 4.37 9.77 4.37L9.77 4.37L9.24 4.37L9.24 4.03L11.62 4.03L11.62 5.42L11.69 5.43L11.69 5.43Q12.32 3.86 13.44 3.86L13.44 3.86L13.44 3.86Q14.31 3.86 14.65 4.30L14.65 4.30L14.65 4.30Q14.99 4.73 15.12 5.40L15.12 5.40L15.19 5.40L15.19 5.40Q15.44 4.69 15.88 4.28L15.88 4.28L15.88 4.28Q16.32 3.86 16.84 3.86L16.84 3.86L16.84 3.86Q17.19 3.86 17.44 3.94L17.44 3.94L17.44 3.94Q17.70 4.02 17.92 4.17L17.92 4.17L17.92 4.17Q18.27 4.42 18.47 4.87L18.47 4.87L18.47 4.87Q18.68 5.32 18.68 5.80L18.68 5.80L18.68 10.11L18.68 10.11Q18.68 10.23 18.73 10.28L18.73 10.28L18.73 10.28Q18.77 10.33 18.90 10.33L18.90 10.33L19.43 10.33L19.43 10.67L16.38 10.67L16.38 10.33L16.83 10.33L16.83 10.33Q16.95 10.33 17.00 10.28L17.00 10.28L17.00 10.28Q17.05 10.23 17.05 10.11L17.05 10.11L17.05 5.39L17.05 5.39Q17.05 4.31 16.41 4.31L16.41 4.31L16.41 4.31Q16.11 4.31 15.82 4.70L15.82 4.70L15.82 4.70Q15.53 5.08 15.34 5.73L15.34 5.73L15.34 5.73Q15.15 6.38 15.15 7.11L15.15 7.11L15.15 10.11L15.15 10.11Q15.15 10.23 15.20 10.28L15.20 10.28L15.20 10.28Q15.25 10.33 15.37 10.33L15.37 10.33L15.82 10.33L15.82 10.67L12.85 10.67L12.85 10.33L13.30 10.33L13.30 10.33Q13.43 10.33 13.47 10.28L13.47 10.28L13.47 10.28Q13.52 10.23 13.52 10.11L13.52 10.11L13.52 5.14L13.52 5.14Q13.52 4.72 13.43 4.52L13.43 4.52L13.43 4.52Q13.33 4.31 12.99 4.31L12.99 4.31L12.99 4.31Q12.70 4.31 12.38 4.70L12.38 4.70L12.38 4.70Q12.05 5.10 11.84 5.74L11.84 5.74L11.84 5.74Q11.62 6.38 11.62 7.11L11.62 7.11L11.62 10.11L11.62 10.11Q11.62 10.23 11.67 10.28L11.67 10.28L11.67 10.28Q11.72 10.33 11.84 10.33L11.84 10.33L12.29 10.33L12.29 10.67L9.24 10.67ZM22.37 10.84L22.37 10.84Q21.60 10.84 21.06 10.46L21.06 10.46L21.06 10.46Q20.52 10.08 20.52 9.18L20.52 9.18L20.52 9.18Q20.52 8.27 21.19 7.75L21.19 7.75L21.19 7.75Q21.85 7.22 22.88 6.87L22.88 6.87L23.91 6.51L23.91 5.56L23.91 5.56Q23.91 4.84 23.62 4.52L23.62 4.52L23.62 4.52Q23.32 4.20 22.86 4.20L22.86 4.20L22.86 4.20Q22.47 4.20 22.18 4.38L22.18 4.38L22.18 4.38Q21.90 4.55 21.90 4.86L21.90 4.86L21.90 4.86Q21.90 4.94 21.95 5.06L21.95 5.06L21.95 5.06Q21.99 5.18 22.12 5.26L22.12 5.26L22.12 5.26Q22.33 5.39 22.42 5.53L22.42 5.53L22.42 5.53Q22.51 5.67 22.51 5.89L22.51 5.89L22.51 5.89Q22.51 6.23 22.27 6.42L22.27 6.42L22.27 6.42Q22.02 6.61 21.73 6.61L21.73 6.61L21.73 6.61Q21.36 6.61 21.11 6.36L21.11 6.36L21.11 6.36Q20.85 6.12 20.85 5.66L20.85 5.66L20.85 5.66Q20.85 5.12 21.17 4.71L21.17 4.71L21.17 4.71Q21.49 4.30 21.99 4.08L21.99 4.08L21.99 4.08Q22.50 3.86 23.02 3.86L23.02 3.86L23.02 3.86Q24.02 3.86 24.78 4.40L24.78 4.40L24.78 4.40Q25.54 4.94 25.54 6.12L25.54 6.12L25.54 9.66L25.54 9.66Q25.54 10.16 25.82 10.16L25.82 10.16L25.82 10.16Q26.07 10.16 26.19 9.74L26.19 9.74L26.19 9.74Q26.32 9.32 26.32 8.78L26.32 8.78L26.71 8.78L26.71 8.78Q26.71 9.80 26.40 10.28L26.40 10.28L26.40 10.28Q26.25 10.53 25.97 10.68L25.97 10.68L25.97 10.68Q25.69 10.84 25.33 10.84L25.33 10.84L25.33 10.84Q24.75 10.84 24.46 10.66L24.46 10.66L24.46 10.66Q24.16 10.49 23.97 10.08L23.97 10.08L23.94 10.08L23.94 10.08Q23.38 10.84 22.37 10.84L22.37 10.84ZM23.06 10.28L23.06 10.28Q23.60 10.28 23.91 9.66L23.91 9.66L23.91 6.89L23.13 7.17L23.13 7.17Q22.67 7.34 22.45 7.81L22.45 7.81L22.45 7.81Q22.23 8.27 22.23 9.06L22.23 9.06L22.23 9.06Q22.23 9.74 22.48 10.01L22.48 10.01L22.48 10.01Q22.74 10.28 23.06 10.28L23.06 10.28ZM27.55 10.67L27.55 10.33L28.08 10.33L28.08 10.33Q28.21 10.33 28.26 10.28L28.26 10.28L28.26 10.28Q28.31 10.23 28.31 10.11L28.31 10.11L28.31 4.59L28.31 4.59Q28.31 4.47 28.26 4.42L28.26 4.42L28.26 4.42Q28.21 4.37 28.08 4.37L28.08 4.37L27.55 4.37L27.55 4.03L29.93 4.03L29.93 5.42L30.00 5.43L30.00 5.43Q30.23 4.79 30.64 4.33L30.64 4.33L30.64 4.33Q31.05 3.86 31.56 3.86L31.56 3.86L31.56 3.86Q32.06 3.86 32.38 4.23L32.38 4.23L32.38 4.23Q32.70 4.59 32.70 5.15L32.70 5.15L32.70 5.15Q32.70 5.67 32.41 6.04L32.41 6.04L32.41 6.04Q32.12 6.41 31.68 6.41L31.68 6.41L31.68 6.41Q31.30 6.41 31.04 6.18L31.04 6.18L31.04 6.18Q30.77 5.95 30.77 5.61L30.77 5.61L30.77 5.61Q30.77 5.28 31.11 4.89L31.11 4.89L31.11 4.89Q31.30 4.66 31.30 4.56L31.30 4.56L31.30 4.56Q31.30 4.42 31.15 4.42L31.15 4.42L31.15 4.42Q30.87 4.42 30.58 4.83L30.58 4.83L30.58 4.83Q30.30 5.24 30.11 5.89L30.11 5.89L30.11 5.89Q29.93 6.55 29.93 7.29L29.93 7.29L29.93 10.11L29.93 10.11Q29.93 10.23 29.98 10.28L29.98 10.28L29.98 10.28Q30.03 10.33 30.16 10.33L30.16 10.33L30.60 10.33L30.60 10.67L27.55 10.67ZM36.04 10.84L36.04 10.84Q35.15 10.84 34.67 10.38L34.67 10.38L34.67 10.38Q34.19 9.93 34.19 9.10L34.19 9.10L34.19 4.42L33.35 4.42L33.35 4.03L33.35 4.03Q34.17 3.92 34.66 3.35L34.66 3.35L34.66 3.35Q35.14 2.77 35.14 1.85L35.14 1.85L35.14 1.34L35.81 1.34L35.81 4.03L37.24 4.03L37.24 4.42L35.81 4.42L35.81 9.20L35.81 9.20Q35.81 9.66 35.94 9.94L35.94 9.94L35.94 9.94Q36.06 10.22 36.46 10.22L36.46 10.22L36.46 10.22Q37.04 10.22 37.24 9.42L37.24 9.42L37.24 9.42Q37.44 8.61 37.44 7.62L37.44 7.62L37.83 7.62L37.83 7.62Q37.83 8.41 37.72 9.09L37.72 9.09L37.72 9.09Q37.62 9.76 37.39 10.12L37.39 10.12L37.39 10.12Q36.95 10.84 36.04 10.84L36.04 10.84ZM46.94 10.92L46.94 10.92Q46.33 10.92 45.84 10.75L45.84 10.75L45.84 10.75Q45.35 10.57 45.02 10.30L45.02 10.30L45.02 10.30Q44.70 10.07 44.56 9.98L44.56 9.98L44.56 9.98Q44.42 9.88 44.30 9.88L44.30 9.88L44.30 9.88Q44.00 9.88 43.93 10.36L43.93 10.36L43.86 10.81L43.43 10.81L43.34 6.38L43.79 6.38L43.79 6.38Q43.99 7.45 44.46 8.39L44.46 8.39L44.46 8.39Q44.93 9.32 45.59 9.90L45.59 9.90L45.59 9.90Q46.26 10.47 47.03 10.47L47.03 10.47L47.03 10.47Q48.13 10.47 48.54 9.98L48.54 9.98L48.54 9.98Q48.94 9.49 48.94 8.88L48.94 8.88L48.94 8.88Q48.94 8.51 48.69 8.23L48.69 8.23L48.69 8.23Q48.43 7.94 47.94 7.62L47.94 7.62L44.94 5.68L44.94 5.68Q44.28 5.26 43.83 4.63L43.83 4.63L43.83 4.63Q43.37 4.00 43.37 3.14L43.37 3.14L43.37 3.14Q43.37 1.78 44.16 1.11L44.16 1.11L44.16 1.11Q44.95 0.45 46.12 0.45L46.12 0.45L46.12 0.45Q47.11 0.45 48.10 1.15L48.10 1.15L48.10 1.15Q48.43 1.40 48.61 1.40L48.61 1.40L48.61 1.40Q48.86 1.40 48.92 1.08L48.92 1.08L49 0.70L49.45 0.70L49.59 4.34L49.14 4.34L49.14 4.34Q48.87 3.37 48.40 2.59L48.40 2.59L48.40 2.59Q47.92 1.81 47.30 1.35L47.30 1.35L47.30 1.35Q46.68 0.90 46.00 0.90L46.00 0.90L46.00 0.90Q45.26 0.90 44.91 1.19L44.91 1.19L44.91 1.19Q44.55 1.48 44.55 2.07L44.55 2.07L44.55 2.07Q44.55 2.87 45.79 3.68L45.79 3.68L48.80 5.63L48.80 5.63Q49.38 6.01 49.72 6.66L49.72 6.66L49.72 6.66Q50.06 7.32 50.06 8.04L50.06 8.04L50.06 8.04Q50.06 8.76 49.71 9.42L49.71 9.42L49.71 9.42Q49.36 10.08 48.66 10.50L48.66 10.50L48.66 10.50Q47.96 10.92 46.94 10.92L46.94 10.92ZM53.73 10.84L53.73 10.84Q52.85 10.84 52.37 10.38L52.37 10.38L52.37 10.38Q51.88 9.93 51.88 9.10L51.88 9.10L51.88 4.42L51.04 4.42L51.04 4.03L51.04 4.03Q51.87 3.92 52.35 3.35L52.35 3.35L52.35 3.35Q52.84 2.77 52.84 1.85L52.84 1.85L52.84 1.34L53.51 1.34L53.51 4.03L54.94 4.03L54.94 4.42L53.51 4.42L53.51 9.20L53.51 9.20Q53.51 9.66 53.63 9.94L53.63 9.94L53.63 9.94Q53.76 10.22 54.15 10.22L54.15 10.22L54.15 10.22Q54.74 10.22 54.94 9.42L54.94 9.42L54.94 9.42Q55.13 8.61 55.13 7.62L55.13 7.62L55.52 7.62L55.52 7.62Q55.52 8.41 55.42 9.09L55.42 9.09L55.42 9.09Q55.31 9.76 55.09 10.12L55.09 10.12L55.09 10.12Q54.64 10.84 53.73 10.84L53.73 10.84ZM58.93 10.84L58.93 10.84Q58.58 10.84 58.32 10.76L58.32 10.76L58.32 10.76Q58.07 10.68 57.85 10.53L57.85 10.53L57.85 10.53Q57.50 10.28 57.30 9.83L57.30 9.83L57.30 9.83Q57.09 9.38 57.09 8.90L57.09 8.90L57.09 4.59L57.09 4.59Q57.09 4.47 57.04 4.42L57.04 4.42L57.04 4.42Q56.99 4.37 56.87 4.37L56.87 4.37L56.20 4.37L56.20 4.03L58.72 4.03L58.72 9.31L58.72 9.31Q58.72 10.39 59.36 10.39L59.36 10.39L59.36 10.39Q59.65 10.39 59.98 10.00L59.98 10.00L59.98 10.00Q60.30 9.60 60.52 8.96L60.52 8.96L60.52 8.96Q60.73 8.32 60.73 7.59L60.73 7.59L60.73 4.59L60.73 4.59Q60.73 4.47 60.68 4.42L60.68 4.42L60.68 4.42Q60.63 4.37 60.51 4.37L60.51 4.37L59.84 4.37L59.84 4.03L62.36 4.03L62.36 10.11L62.36 10.11Q62.36 10.23 62.41 10.28L62.41 10.28L62.41 10.28Q62.45 10.33 62.58 10.33L62.58 10.33L63.11 10.33L63.11 10.67L60.73 10.67L60.73 9.42L60.66 9.41L60.66 9.41Q60.38 10.07 59.94 10.45L59.94 10.45L59.94 10.45Q59.50 10.84 58.93 10.84L58.93 10.84ZM66.75 10.84L66.75 10.84Q66.02 10.84 65.45 10.34L65.45 10.34L65.45 10.34Q64.88 9.84 64.55 9.04L64.55 9.04L64.55 9.04Q64.23 8.23 64.23 7.35L64.23 7.35L64.23 7.35Q64.23 6.45 64.54 5.66L64.54 5.66L64.54 5.66Q64.85 4.86 65.41 4.36L65.41 4.36L65.41 4.36Q65.97 3.86 66.70 3.86L66.70 3.86L66.70 3.86Q67.14 3.86 67.49 4.13L67.49 4.13L67.49 4.13Q67.84 4.40 68.07 4.86L68.07 4.86L68.15 4.83L68.15 1.26L68.15 1.26Q68.15 1.13 68.10 1.09L68.10 1.09L68.10 1.09Q68.05 1.04 67.93 1.04L67.93 1.04L67.14 1.04L67.14 0.70L69.78 0.70L69.78 10.11L69.78 10.11Q69.78 10.23 69.83 10.28L69.83 10.28L69.83 10.28Q69.87 10.33 70 10.33L70 10.33L70.78 10.33L70.78 10.67L68.15 10.67L68.15 9.86L68.07 9.86L68.07 9.86Q67.89 10.25 67.54 10.54L67.54 10.54L67.54 10.54Q67.20 10.84 66.75 10.84L66.75 10.84ZM66.95 10.39L66.95 10.39Q67.27 10.39 67.54 9.99L67.54 9.99L67.54 9.99Q67.82 9.59 67.98 8.90L67.98 8.90L67.98 8.90Q68.15 8.22 68.15 7.39L68.15 7.39L68.15 7.39Q68.15 6.38 67.96 5.68L67.96 5.68L67.96 5.68Q67.76 4.98 67.48 4.65L67.48 4.65L67.48 4.65Q67.20 4.31 66.95 4.31L66.95 4.31L66.95 4.31Q66.02 4.31 66.02 7.35L66.02 7.35L66.02 7.35Q66.02 10.39 66.95 10.39L66.95 10.39ZM74.75 10.84L74.75 10.84Q73.88 10.84 73.20 10.37L73.20 10.37L73.20 10.37Q72.52 9.90 72.14 9.10L72.14 9.10L72.14 9.10Q71.76 8.30 71.76 7.35L71.76 7.35L71.76 7.35Q71.76 6.37 72.14 5.57L72.14 5.57L72.14 5.57Q72.52 4.77 73.17 4.32L73.17 4.32L73.17 4.32Q73.82 3.86 74.59 3.86L74.59 3.86L74.59 3.86Q75.45 3.86 76.06 4.47L76.06 4.47L76.06 4.47Q76.68 5.08 76.87 6.08L76.87 6.08L76.87 6.08Q76.97 6.52 76.97 7.48L76.97 7.48L73.56 7.48L73.56 7.48Q73.56 8.15 73.58 8.53L73.58 8.53L73.58 8.53Q73.61 8.92 73.71 9.28L73.71 9.28L73.71 9.28Q73.84 9.80 74.19 10.11L74.19 10.11L74.19 10.11Q74.55 10.42 75.03 10.42L75.03 10.42L75.03 10.42Q75.71 10.42 76.13 9.81L76.13 9.81L76.13 9.81Q76.55 9.21 76.64 8.40L76.64 8.40L77 8.40L77 8.40Q76.92 9.37 76.37 10.10L76.37 10.10L76.37 10.10Q75.82 10.84 74.75 10.84L74.75 10.84ZM73.56 7.08L75.35 7.08L75.35 7.08Q75.35 5.61 75.16 4.91L75.16 4.91L75.16 4.91Q74.97 4.20 74.45 4.20L74.45 4.20L74.45 4.20Q73.93 4.20 73.75 4.91L73.75 4.91L73.75 4.91Q73.56 5.61 73.56 7.08L73.56 7.08ZM78.26 10.67L78.26 10.33L78.79 10.33L78.79 10.33Q78.92 10.33 78.97 10.28L78.97 10.28L78.97 10.28Q79.02 10.23 79.02 10.11L79.02 10.11L79.02 4.59L79.02 4.59Q79.02 4.47 78.97 4.42L78.97 4.42L78.97 4.42Q78.92 4.37 78.79 4.37L78.79 4.37L78.26 4.37L78.26 4.03L80.64 4.03L80.64 5.28L80.71 5.29L80.71 5.29Q80.99 4.63 81.43 4.25L81.43 4.25L81.43 4.25Q81.87 3.86 82.45 3.86L82.45 3.86L82.45 3.86Q82.80 3.86 83.05 3.94L83.05 3.94L83.05 3.94Q83.30 4.02 83.52 4.17L83.52 4.17L83.52 4.17Q83.87 4.42 84.08 4.87L84.08 4.87L84.08 4.87Q84.28 5.32 84.28 5.80L84.28 5.80L84.28 10.11L84.28 10.11Q84.28 10.23 84.33 10.28L84.33 10.28L84.33 10.28Q84.38 10.33 84.50 10.33L84.50 10.33L85.04 10.33L85.04 10.67L81.98 10.67L81.98 10.33L82.43 10.33L82.43 10.33Q82.56 10.33 82.61 10.28L82.61 10.28L82.61 10.28Q82.66 10.23 82.66 10.11L82.66 10.11L82.66 5.39L82.66 5.39Q82.66 4.31 82.01 4.31L82.01 4.31L82.01 4.31Q81.72 4.31 81.40 4.70L81.40 4.70L81.40 4.70Q81.07 5.10 80.86 5.74L80.86 5.74L80.86 5.74Q80.64 6.38 80.64 7.11L80.64 7.11L80.64 10.11L80.64 10.11Q80.64 10.23 80.69 10.28L80.69 10.28L80.69 10.28Q80.74 10.33 80.86 10.33L80.86 10.33L81.31 10.33L81.31 10.67L78.26 10.67ZM88.45 10.84L88.45 10.84Q87.57 10.84 87.09 10.38L87.09 10.38L87.09 10.38Q86.60 9.93 86.60 9.10L86.60 9.10L86.60 4.42L85.76 4.42L85.76 4.03L85.76 4.03Q86.59 3.92 87.07 3.35L87.07 3.35L87.07 3.35Q87.56 2.77 87.56 1.85L87.56 1.85L87.56 1.34L88.23 1.34L88.23 4.03L89.66 4.03L89.66 4.42L88.23 4.42L88.23 9.20L88.23 9.20Q88.23 9.66 88.35 9.94L88.35 9.94L88.35 9.94Q88.48 10.22 88.87 10.22L88.87 10.22L88.87 10.22Q89.46 10.22 89.66 9.42L89.66 9.42L89.66 9.42Q89.85 8.61 89.85 7.62L89.85 7.62L90.24 7.62L90.24 7.62Q90.24 8.41 90.14 9.09L90.14 9.09L90.14 9.09Q90.03 9.76 89.81 10.12L89.81 10.12L89.81 10.12Q89.36 10.84 88.45 10.84L88.45 10.84ZM99.36 10.92L99.36 10.92Q98.74 10.92 98.25 10.75L98.25 10.75L98.25 10.75Q97.76 10.57 97.44 10.30L97.44 10.30L97.44 10.30Q97.12 10.07 96.98 9.98L96.98 9.98L96.98 9.98Q96.84 9.88 96.71 9.88L96.71 9.88L96.71 9.88Q96.42 9.88 96.35 10.36L96.35 10.36L96.28 10.81L95.84 10.81L95.76 6.38L96.21 6.38L96.21 6.38Q96.40 7.45 96.87 8.39L96.87 8.39L96.87 8.39Q97.34 9.32 98.01 9.90L98.01 9.90L98.01 9.90Q98.67 10.47 99.44 10.47L99.44 10.47L99.44 10.47Q100.55 10.47 100.95 9.98L100.95 9.98L100.95 9.98Q101.36 9.49 101.36 8.88L101.36 8.88L101.36 8.88Q101.36 8.51 101.10 8.23L101.10 8.23L101.10 8.23Q100.84 7.94 100.35 7.62L100.35 7.62L97.36 5.68L97.36 5.68Q96.70 5.26 96.24 4.63L96.24 4.63L96.24 4.63Q95.79 4.00 95.79 3.14L95.79 3.14L95.79 3.14Q95.79 1.78 96.58 1.11L96.58 1.11L96.58 1.11Q97.37 0.45 98.53 0.45L98.53 0.45L98.53 0.45Q99.53 0.45 100.52 1.15L100.52 1.15L100.52 1.15Q100.84 1.40 101.02 1.40L101.02 1.40L101.02 1.40Q101.28 1.40 101.33 1.08L101.33 1.08L101.42 0.70L101.86 0.70L102.00 4.34L101.56 4.34L101.56 4.34Q101.29 3.37 100.81 2.59L100.81 2.59L100.81 2.59Q100.34 1.81 99.72 1.35L99.72 1.35L99.72 1.35Q99.09 0.90 98.42 0.90L98.42 0.90L98.42 0.90Q97.68 0.90 97.32 1.19L97.32 1.19L97.32 1.19Q96.96 1.48 96.96 2.07L96.96 2.07L96.96 2.07Q96.96 2.87 98.21 3.68L98.21 3.68L101.22 5.63L101.22 5.63Q101.79 6.01 102.14 6.66L102.14 6.66L102.14 6.66Q102.48 7.32 102.48 8.04L102.48 8.04L102.48 8.04Q102.48 8.76 102.13 9.42L102.13 9.42L102.13 9.42Q101.78 10.08 101.08 10.50L101.08 10.50L101.08 10.50Q100.38 10.92 99.36 10.92L99.36 10.92ZM103.54 10.67L103.54 10.33L104.33 10.33L104.33 10.33Q104.45 10.33 104.50 10.28L104.50 10.28L104.50 10.28Q104.55 10.23 104.55 10.11L104.55 10.11L104.55 1.26L104.55 1.26Q104.55 1.13 104.50 1.09L104.50 1.09L104.50 1.09Q104.45 1.04 104.33 1.04L104.33 1.04L103.54 1.04L103.54 0.70L106.18 0.70L106.18 5.28L106.25 5.29L106.25 5.29Q106.53 4.63 106.97 4.25L106.97 4.25L106.97 4.25Q107.41 3.86 107.98 3.86L107.98 3.86L107.98 3.86Q108.33 3.86 108.58 3.94L108.58 3.94L108.58 3.94Q108.84 4.02 109.06 4.17L109.06 4.17L109.06 4.17Q109.41 4.42 109.61 4.87L109.61 4.87L109.61 4.87Q109.82 5.32 109.82 5.80L109.82 5.80L109.82 10.11L109.82 10.11Q109.82 10.23 109.87 10.28L109.87 10.28L109.87 10.28Q109.91 10.33 110.04 10.33L110.04 10.33L110.57 10.33L110.57 10.67L107.52 10.67L107.52 10.33L107.97 10.33L107.97 10.33Q108.09 10.33 108.14 10.28L108.14 10.28L108.14 10.28Q108.19 10.23 108.19 10.11L108.19 10.11L108.19 5.39L108.19 5.39Q108.19 4.31 107.55 4.31L107.55 4.31L107.55 4.31Q107.25 4.31 106.93 4.70L106.93 4.70L106.93 4.70Q106.61 5.10 106.39 5.74L106.39 5.74L106.39 5.74Q106.18 6.38 106.18 7.11L106.18 7.11L106.18 10.11L106.18 10.11Q106.18 10.23 106.23 10.28L106.23 10.28L106.23 10.28Q106.27 10.33 106.40 10.33L106.40 10.33L106.85 10.33L106.85 10.67L103.54 10.67ZM114.55 10.84L114.55 10.84Q113.79 10.84 113.13 10.38L113.13 10.38L113.13 10.38Q112.48 9.93 112.08 9.13L112.08 9.13L112.08 9.13Q111.69 8.33 111.69 7.35L111.69 7.35L111.69 7.35Q111.69 6.37 112.08 5.57L112.08 5.57L112.08 5.57Q112.48 4.77 113.13 4.32L113.13 4.32L113.13 4.32Q113.79 3.86 114.55 3.86L114.55 3.86L114.55 3.86Q115.30 3.86 115.96 4.32L115.96 4.32L115.96 4.32Q116.62 4.77 117.01 5.57L117.01 5.57L117.01 5.57Q117.40 6.37 117.40 7.35L117.40 7.35L117.40 7.35Q117.40 8.33 117.01 9.13L117.01 9.13L117.01 9.13Q116.62 9.93 115.96 10.38L115.96 10.38L115.96 10.38Q115.30 10.84 114.55 10.84L114.55 10.84ZM114.55 10.50L114.55 10.50Q115.15 10.50 115.38 9.76L115.38 9.76L115.38 9.76Q115.61 9.02 115.61 7.35L115.61 7.35L115.61 7.35Q115.61 5.68 115.38 4.94L115.38 4.94L115.38 4.94Q115.15 4.20 114.55 4.20L114.55 4.20L114.55 4.20Q113.95 4.20 113.72 4.94L113.72 4.94L113.72 4.94Q113.48 5.68 113.48 7.35L113.48 7.35L113.48 7.35Q113.48 9.02 113.72 9.76L113.72 9.76L113.72 9.76Q113.95 10.50 114.55 10.50L114.55 10.50ZM118.47 13.86L118.47 13.52L119.25 13.52L119.25 13.52Q119.38 13.52 119.43 13.48L119.43 13.48L119.43 13.48Q119.48 13.43 119.48 13.30L119.48 13.30L119.48 4.59L119.48 4.59Q119.48 4.47 119.43 4.42L119.43 4.42L119.43 4.42Q119.38 4.37 119.25 4.37L119.25 4.37L118.47 4.37L118.47 4.03L121.10 4.03L121.10 4.84L121.18 4.84L121.18 4.84Q121.37 4.45 121.71 4.16L121.71 4.16L121.71 4.16Q122.05 3.86 122.50 3.86L122.50 3.86L122.50 3.86Q123.23 3.86 123.80 4.36L123.80 4.36L123.80 4.36Q124.38 4.86 124.70 5.66L124.70 5.66L124.70 5.66Q125.02 6.47 125.02 7.35L125.02 7.35L125.02 7.35Q125.02 8.25 124.71 9.04L124.71 9.04L124.71 9.04Q124.40 9.84 123.84 10.34L123.84 10.34L123.84 10.34Q123.28 10.84 122.56 10.84L122.56 10.84L122.56 10.84Q122.11 10.84 121.76 10.57L121.76 10.57L121.76 10.57Q121.41 10.30 121.18 9.84L121.18 9.84L121.10 9.87L121.10 13.30L121.10 13.30Q121.10 13.43 121.15 13.48L121.15 13.48L121.15 13.48Q121.20 13.52 121.32 13.52L121.32 13.52L122.11 13.52L122.11 13.86L118.47 13.86ZM122.30 10.39L122.30 10.39Q123.23 10.39 123.23 7.35L123.23 7.35L123.23 7.35Q123.23 4.31 122.30 4.31L122.30 4.31L122.30 4.31Q121.98 4.31 121.71 4.71L121.71 4.71L121.71 4.71Q121.44 5.11 121.27 5.80L121.27 5.80L121.27 5.80Q121.10 6.48 121.10 7.31L121.10 7.31L121.10 7.31Q121.10 8.32 121.30 9.02L121.30 9.02L121.30 9.02Q121.49 9.72 121.77 10.05L121.77 10.05L121.77 10.05Q122.05 10.39 122.30 10.39L122.30 10.39Z"></path></g><!----><!----></svg>